#!OML:ASF H:\Terrain\Patient Classification 1\Animal1\Tuesday\Animal1.ASF
:FULLY-SPECIFIED
:DEGREES
834
root 15.4659 16.2688 -12.7371 5.53846 -5.67746 -0.636548
lowerback -0.296689 -3.56338 3.71536
upperback -8.12267 -4.4689 2.73492
thorax -8.43488 -2.36344 1.13457
lowerneck 2.8654 -9.14838 -9.4139
upperneck 13.92 -12.5409 1.25562
head 4.41522 -6.64094 1.43499
rclavicle -1.00585e-013 7.15625e-015
rhumerus -24.9455 -0.28777 -40.1827
rradius 40.388
rwrist -0.556432
rhand -10.9325 22.0084
rfingers 7.12502
rthumb 15.0855 -7.42186
lclavicle -1.00585e-013 7.15625e-015
lhumerus -27.5821 -0.669407 51.7076
lradius 53.1409
lwrist -22.6206
lhand 10.1885 49.8755
lfingers 7.12502
lthumb 35.3051 76.3598
rfemur -16.547 34.1146 27.6877
rtibia 21.3247
rfoot -41.2825 -36.1482
rtoes 38.0761
lfemur -25.4818 12.2103 -20.9336
ltibia 56.6713
lfoot 2.07406 -9.70534
ltoes 10.411
835
root 15.4681 16.271 -12.75 5.53424 -5.58855 -0.631321
lowerback -0.268334 -3.61382 3.63235
upperback -8.18656 -4.53334 2.78971
thorax -8.51094 -2.38763 1.24864
lowerneck 3.03983 -9.12386 -9.28944
upperneck 13.9629 -12.4839 0.888052
head 4.36682 -6.62582 1.31867
rclavicle -3.47873e-014 -3.02153e-014
rhumerus -25.7233 -0.54357 -40.8594
rradius 39.9741
rwrist -0.40569
rhand -10.8866 22.1891
rfingers 7.12502
rthumb 15.1297 -7.23791
lclavicle -3.47873e-014 -3.02153e-014
lhumerus -28.3793 -0.930518 52.4394
lradius 53.393
lwrist -22.3837
lhand 9.98648 49.9967
lfingers 7.12502
lthumb 35.1135 76.5261
rfemur -16.6031 33.7448 27.6737
rtibia 21.317
rfoot -41.2677 -35.7304
rtoes 38.0886
lfemur -25.2387 11.9403 -20.9835
ltibia 56.2619
lfoot 1.06726 -9.76327
ltoes 9.80361
836
root 15.468 16.2668 -12.7671 5.54882 -5.45555 -0.66128
lowerback -0.192973 -3.65591 3.551
upperback -8.23735 -4.58481 2.83823
thorax -8.60049 -2.40532 1.35723
lowerneck 3.00915 -9.16536 -8.96518
upperneck 14.0975 -12.4803 0.371326
head 4.36032 -6.63371 1.11326
rclavicle -5.24792e-014 6.36111e-015
rhumerus -26.5058 -1.0117 -41.4875
rradius 39.5441
rwrist -0.0815982
rhand -11.221 22.3536
rfingers 7.12502
rthumb 14.8076 -7.09737
lclavicle -5.24792e-014 6.36111e-015
lhumerus -29.0733 -1.22815 53.1537
lradius 53.5577
lwrist -22.1123
lhand 9.90956 49.9297
lfingers 7.12502
lthumb 35.0406 76.4762
rfemur -16.7232 33.5671 27.6742
rtibia 21.3517
rfoot -41.2517 -35.5559
rtoes 37.6693
lfemur -24.9769 11.6197 -20.9608
ltibia 55.8694
lfoot 0.471722 -9.45346
ltoes 12.6894
837
root 15.4674 16.2674 -12.7775 5.57795 -5.42788 -0.474862
lowerback -0.274885 -3.63303 3.25228
upperback -8.21805 -4.57414 2.81214
thorax -8.50572 -2.38022 1.48439
lowerneck 2.89409 -9.23351 -8.93855
upperneck 14.1842 -12.5493 0.26546
head 4.40102 -6.67176 1.0658
rclavicle -9.24349e-014 5.56597e-015
rhumerus -27.1776 -1.63355 -42.071
rradius 39.0287
rwrist 0.302399
rhand -11.1608 22.1369
rfingers 7.12502
rthumb 14.8656 -7.30974
lclavicle -9.24349e-014 5.56597e-015
lhumerus -29.4064 -1.20675 53.8584
lradius 53.3557
lwrist -22.0149
lhand 10.227 49.6848
lfingers 7.12502
lthumb 35.3416 76.1604
rfemur -16.8584 33.4949 27.4282
rtibia 21.4437
rfoot -41.2086 -35.4145
rtoes 37.3057
lfemur -24.5819 11.2722 -21.1556
ltibia 55.4346
lfoot 0.821455 -8.96968
ltoes 19.8208
838
root 15.4675 16.2704 -12.7832 5.60853 -5.52289 -0.214589
lowerback -0.418018 -3.58507 2.90614
upperback -8.1794 -4.53579 2.76778
thorax -8.35146 -2.3395 1.61058
lowerneck 2.93808 -9.31064 -8.67984
upperneck 14.0203 -12.6163 -0.0844286
head 4.3075 -6.7038 0.928775
rclavicle 5.60573e-014 -3.4191e-014
rhumerus -27.7891 -1.88184 -42.7341
rradius 38.529
rwrist 0.216451
rhand -10.7478 21.7699
rfingers 7.12502
rthumb 15.2635 -7.64694
lclavicle 5.60573e-014 -3.4191e-014
lhumerus -29.6122 -1.09814 54.588
lradius 52.9874
lwrist -21.8829
lhand 10.2596 49.2873
lfingers 7.12502
lthumb 35.3725 75.7556
rfemur -16.9957 33.3895 27.1058
rtibia 21.5441
rfoot -41.0854 -35.2296
rtoes 37.4303
lfemur -24.1972 11.0617 -21.4808
ltibia 54.9322
lfoot 0.52267 -8.60616
ltoes 23.2174
839
root 15.4695 16.2682 -12.7921 5.649 -5.56481 -0.0657003
lowerback -0.528085 -3.56775 2.70861
upperback -8.16028 -4.52812 2.73983
thorax -8.25073 -2.32375 1.67909
lowerneck 3.12815 -9.38651 -8.34166
upperneck 13.459 -12.6757 -0.593056
head 4.48287 -6.73467 0.799223
rclavicle -1.51076e-014 2.46493e-014
rhumerus -28.4694 -1.95986 -43.4716
rradius 38.1014
rwrist 0.0823776
rhand -10.9229 21.5433
rfingers 7.12502
rthumb 15.0948 -7.88634
lclavicle -1.51076e-014 2.46493e-014
lhumerus -29.9178 -0.946035 55.3149
lradius 52.7954
lwrist -21.8898
lhand 9.9665 48.7731
lfingers 7.12502
lthumb 35.0946 75.3071
rfemur -17.1497 32.9721 26.9474
rtibia 21.5679
rfoot -40.0781 -35.7134
rtoes 36.698
lfemur -23.9626 10.9038 -21.7456
ltibia 54.3837
lfoot -0.967428 -8.37309
ltoes 18.2213
840
root 15.4733 16.2652 -12.8024 5.62592 -5.49357 0.00367364
lowerback -0.58265 -3.57316 2.6293
upperback -8.1319 -4.54357 2.7065
thorax -8.18333 -2.32741 1.68259
lowerneck 3.26564 -9.42092 -8.34576
upperneck 13.4116 -12.7331 -0.605558
head 4.44117 -6.76307 0.802343
rclavicle 3.43897e-014 2.14687e-014
rhumerus -29.1611 -2.16189 -44.1629
rradius 37.6265
rwrist 0.17277
rhand -11.4556 21.6689
rfingers 7.12502
rthumb 14.5815 -7.79853
lclavicle 3.43897e-014 2.14687e-014
lhumerus -30.1739 -0.72181 55.9919
lradius 52.5805
lwrist -22.1878
lhand 9.66626 49.3173
lfingers 7.12502
lthumb 34.8097 75.9176
rfemur -17.1729 32.5749 26.9146
rtibia 21.5287
rfoot -39.4657 -35.847
rtoes 35.9667
lfemur -23.6576 10.7352 -21.9268
ltibia 53.8144
lfoot -2.28125 -8.19922
ltoes 11.2858
841
root 15.4737 16.2636 -12.8137 5.57271 -5.38328 -0.165786
lowerback -0.598684 -3.57237 2.76315
upperback -8.07262 -4.53713 2.73171
thorax -8.11869 -2.33212 1.63022
lowerneck 3.34472 -9.43362 -8.524
upperneck 13.439 -12.7744 -0.44329
head 4.46803 -6.78675 0.885024
rclavicle -3.67752e-014 -2.3059e-014
rhumerus -29.9054 -2.36021 -44.8252
rradius 37.2261
rwrist 0.126799
rhand -11.4994 22.3128
rfingers 7.12502
rthumb 14.5393 -7.15773
lclavicle -3.67752e-014 -2.3059e-014
lhumerus -30.2812 -0.315124 56.605
lradius 52.1495
lwrist -22.7141
lhand 9.51896 50.1595
lfingers 7.12502
lthumb 34.6699 76.7919
rfemur -17.1033 32.4958 27.1298
rtibia 21.4861
rfoot -39.5502 -35.6097
rtoes 35.6297
lfemur -23.2739 10.5712 -21.7878
ltibia 53.2857
lfoot -2.80959 -8.06668
ltoes 10.8295
842
root 15.473 16.2575 -12.8333 5.61349 -5.23787 -0.312427
lowerback -0.610375 -3.57261 2.82988
upperback -8.02893 -4.53367 2.76883
thorax -8.06687 -2.33324 1.62861
lowerneck 3.44194 -9.48078 -8.79467
upperneck 13.3853 -12.8687 -0.2298
head 4.47723 -6.83696 1.00057
rclavicle 2.14687e-014 -1.59028e-015
rhumerus -30.6788 -2.70172 -45.4473
rradius 36.941
rwrist 0.0148059
rhand -10.8634 22.9038
rfingers 7.12502
rthumb 15.1521 -6.52153
lclavicle 2.14687e-014 -1.59028e-015
lhumerus -30.4668 0.0562679 57.2142
lradius 51.8845
lwrist -23.1584
lhand 10.1673 50.3733
lfingers 7.12502
lthumb 35.285 76.8624
rfemur -17.2482 32.3728 27.2658
rtibia 21.4662
rfoot -38.0982 -37.0516
rtoes 32.7336
lfemur -23.0843 10.3557 -21.6892
ltibia 52.7977
lfoot -3.46666 -7.92307
ltoes 11.3562
843
root 15.4737 16.2545 -12.8566 5.68043 -5.09163 -0.290641
lowerback -0.549453 -3.57188 2.74767
upperback -8.04187 -4.53291 2.76724
thorax -8.10956 -2.32701 1.67742
lowerneck 3.49826 -9.52281 -8.90014
upperneck 13.4329 -12.9322 -0.212148
head 4.4987 -6.87384 1.02136
rclavicle 8.18993e-014 4.77083e-015
rhumerus -31.3285 -3.29776 -45.9486
rradius 36.4206
rwrist 0.281038
rhand -10.3621 22.995
rfingers 7.12502
rthumb 15.635 -6.39316
lclavicle 8.18993e-014 4.77083e-015
lhumerus -30.7593 0.0974774 57.8652
lradius 51.7526
lwrist -23.2531
lhand 10.5564 49.5786
lfingers 7.12502
lthumb 35.6539 75.9794
rfemur -17.4961 32.4609 27.1132
rtibia 21.4814
rfoot -38.304 -37.2131
rtoes 33.703
lfemur -22.9444 10.0686 -21.7788
ltibia 52.3063
lfoot -4.55963 -7.85597
ltoes 8.00372
844
root 15.4736 16.262 -12.8702 5.68701 -5.05698 -0.163155
lowerback -0.516753 -3.54542 2.56767
upperback -8.05357 -4.50573 2.72439
thorax -8.12927 -2.30286 1.73256
lowerneck 3.45283 -9.53655 -8.83011
upperneck 13.6538 -12.9294 -0.375241
head 4.56891 -6.88049 0.946333
rclavicle -7.95139e-016 1.82882e-014
rhumerus -31.9721 -3.72672 -46.5074
rradius 35.8338
rwrist 0.335552
rhand -10.4939 22.6111
rfingers 7.12502
rthumb 15.508 -6.78701
lclavicle -7.95139e-016 1.82882e-014
lhumerus -30.9716 0.158208 58.4952
lradius 51.464
lwrist -23.3017
lhand 10.6843 47.383
lfingers 7.12502
lthumb 35.7751 73.7545
rfemur -17.6497 32.635 26.866
rtibia 21.6043
rfoot -39.7376 -36.0465
rtoes 36.6031
lfemur -22.6368 9.87623 -21.9864
ltibia 51.7991
lfoot -6.02869 -7.4393
ltoes -2.8058
845
root 15.4734 16.2674 -12.8803 5.74656 -5.07565 -0.0238692
lowerback -0.5856 -3.54288 2.35773
upperback -8.08649 -4.51541 2.68798
thorax -8.10976 -2.2953 1.80693
lowerneck 3.41208 -9.51749 -8.74747
upperneck 13.8797 -12.881 -0.556648
head 4.63524 -6.86523 0.865544
rclavicle 1.66979e-014 -4.77083e-015
rhumerus -32.7102 -3.70605 -47.2876
rradius 35.535
rwrist -0.0741016
rhand -11.0139 21.51
rfingers 7.12502
rthumb 15.0071 -7.92613
lclavicle 1.66979e-014 -4.77083e-015
lhumerus -31.3453 0.547518 59.0174
lradius 51.2334
lwrist -23.4955
lhand 11.5812 46.2904
lfingers 7.12502
lthumb 36.6245 72.451
rfemur -17.9024 32.5287 26.638
rtibia 21.8365
rfoot -39.7741 -35.7644
rtoes 36.0692
lfemur -22.3653 9.81807 -22.2768
ltibia 51.2501
lfoot -7.30811 -6.39301
ltoes -13.0304
